<svg xmlns="http://www.w3.org/2000/svg" width="48" height="24"><path d="M3.637 5.34h6.82c2 .015 3.45.594 4.348 1.73.902 1.137 1.195 2.688.89 4.653a8.806 8.806 0 0 1-.789 2.648 7.892 7.892 0 0 1-1.625 2.34c-.851.883-1.758 1.441-2.722 1.68a12.56 12.56 0 0 1-3.004.355H4.504l-.969 4.832H0L3.637 5.34m2.976 2.898L5.09 15.871c.101.016.203.027.305.027h.355c1.629.016 2.984-.144 4.07-.484 1.086-.355 1.813-1.594 2.188-3.715.305-1.781 0-2.808-.914-3.078-.903-.273-2.028-.398-3.387-.383-.203.02-.398.028-.582.028H6.59l.023-.028M19.727.48h3.507l-.992 4.86h3.156c1.73.035 3.02.39 3.868 1.066.863.68 1.117 1.969.761 3.867l-1.703 8.473h-3.562l1.629-8.09c.168-.847.117-1.449-.153-1.804-.273-.36-.855-.536-1.758-.536l-2.824-.027-2.086 10.457h-3.508L19.727.48m14.07 4.86h6.82c2 .015 3.45.594 4.348 1.73.898 1.137 1.195 2.688.89 4.653a8.806 8.806 0 0 1-.789 2.648 7.892 7.892 0 0 1-1.625 2.34c-.851.883-1.757 1.441-2.722 1.68a12.56 12.56 0 0 1-3.004.355h-3.05l-.97 4.832H30.16L33.797 5.34m2.976 2.898-1.527 7.633c.102.016.207.027.309.027h.355c1.63.016 2.985-.144 4.07-.484 1.086-.355 1.813-1.594 2.188-3.715.305-1.781 0-2.808-.918-3.078-.898-.273-2.023-.398-3.383-.383-.203.02-.398.028-.586.028h-.531l.023-.028"/></svg>
