<svg xmlns="http://www.w3.org/2000/svg" width="48" height="48"><path fill="#4081CC" d="M44 23.816a.768.768 0 0 0-.758-.753.622.622 0 0 0-.168.023 79.722 79.722 0 0 1-20.613 1.531c-2.18-.12-4.324 0-6.438.164-.16.008-.32.028-.48.047a8.09 8.09 0 0 0-4.559 2.211 8.092 8.092 0 0 0-2.238 4.023c-.402 1.84-.117 3.739.66 5.442a10.12 10.12 0 0 0 3.453 4.105 19.887 19.887 0 0 0 8.782 3.25c.015-.468.726-1.203.754-1.558a.65.65 0 0 0-.598-.692c-1.942.07-3.363.028-5.184-.656a12.473 12.473 0 0 1-4.89-3.336 7.458 7.458 0 0 1-1.52-2.39 6.932 6.932 0 0 1-.43-2.82 6.924 6.924 0 0 1 5.868-6.391 6.873 6.873 0 0 1 6.882 3.304c.54.907.973 1.871 1.286 2.875.644 2.094.703 4.387.425 6.547a17.05 17.05 0 0 1-1.097 4.215.734.734 0 0 0 .062.695.75.75 0 0 0 .61.344H24c4.71.008 9.27-1.656 12.867-4.691l.012-.012a.73.73 0 0 0 .223-.527.85.85 0 0 0-.122-.41c-1.304-2.262-4.14-5.52-4.14-5.52s3.21 2.879 5.515 4.137a.86.86 0 0 0 .415.129c.203 0 .39-.086.527-.223l.02-.024A19.926 19.926 0 0 0 44 23.996v-.18"/><path fill="#FAB20A" d="M7.79 32.973a16 16 0 0 1-1.395-5.57c-.016-.262-.008-.61-.012-.868a.644.644 0 0 0-.645-.648c-.355 0-1.12.652-1.656.652a20.121 20.121 0 0 0 5.41 11.305c1.445 1.508 3.235 2.676 5.266 3.222 1.75.477 3.597.262 5.21-.55a7.485 7.485 0 0 0 2.071-1.555c.625-.68 1.11-1.504 1.555-2.305.468-.851.879-1.734 1.246-2.636.39-.95.715-1.938 1.144-2.88 1.625-3.558 3.918-6.808 7.016-9.23a23.532 23.532 0 0 1 9.023-4.336.763.763 0 0 0 .45-.375c.09-.18.109-.39.043-.582a20.069 20.069 0 0 0-5.254-7.52l-.051-.042a.733.733 0 0 0-.492-.192c-.207 0-.38.125-.535.235-3.692 2.566-6.41 6.847-6.41 6.847s1.437-3.656 4.507-8.172a.751.751 0 0 0-.203-1.003c-.023-.016-.05-.032-.074-.047a20.122 20.122 0 0 0-6.133-2.336 20.126 20.126 0 0 0-4.793-.367h-.035a.76.76 0 0 0-.727.746c-.203 5.257.825 14.289.825 14.289s-1.828-8.907-3.637-13.84a.763.763 0 0 0-.856-.512c-.007 0-.011 0-.02.004a20.06 20.06 0 0 0-9.608 5.957l-.024.027a.746.746 0 0 0-.203.508c0 .207.074.414.227.531a49.262 49.262 0 0 1 6.847 6.415s-3.73-2.758-8.172-4.512c-.12-.047-.246-.11-.386-.11a.75.75 0 0 0-.625.34 19.855 19.855 0 0 0-2.66 8.164c-.047.407-.07.825.351 1.055a.75.75 0 0 0 .535.07 18.83 18.83 0 0 1 10.305.766c1.851.695 3.543 1.777 4.828 3.3 2.414 2.872 3.703 7.802.922 10.864A6.07 6.07 0 0 1 15.925 40c-.968-.09-1.827-.434-2.671-.887a11.48 11.48 0 0 1-2.16-1.48c-1.43-1.274-2.528-2.922-3.305-4.66"/></svg>
