<svg xmlns="http://www.w3.org/2000/svg" version="1.0" width="200" height="200"><defs><linearGradient x1="112.499" y1="6.137" x2="112.499" y2="129.347" id="a" gradientUnits="userSpaceOnUse" gradientTransform="translate(287 -83)"><stop style="stop-color:#fff;stop-opacity:0" offset="0"/><stop style="stop-color:#fff;stop-opacity:.27450982" offset="1"/><midPointStop offset=".5" style="stop-color:#fff"/></linearGradient><linearGradient id="b"><stop style="stop-color:#000;stop-opacity:0" offset="0"/><stop style="stop-color:#000;stop-opacity:.37113401" offset="1"/></linearGradient></defs><path d="M99.984 16.906C92.588 35.041 88.126 46.904 79.891 64.5c5.049 5.352 11.247 11.585 21.312 18.625-10.821-4.453-18.202-8.923-23.719-13.563-10.54 21.993-27.052 53.321-60.562 113.532 26.338-15.205 46.754-24.58 65.781-28.156a48.219 48.219 0 0 1-1.25-11.282l.031-.844c.418-16.873 9.196-29.85 19.594-28.968 10.398.88 18.48 15.282 18.063 32.156-.079 3.175-.437 6.23-1.063 9.063 18.82 3.681 39.019 13.031 65 28.03-5.123-9.431-9.696-17.933-14.062-26.03-6.879-5.332-14.053-12.27-28.688-19.782 10.06 2.614 17.261 5.63 22.875 9C118.805 63.62 115.21 52.635 99.984 16.906z" style="fill:#1793d1;fill-opacity:1;fill-rule:evenodd;stroke:none"/></svg>