<svg xmlns="http://www.w3.org/2000/svg" width="256" height="256"><path style="fill:none;fill-rule:evenodd;stroke:#303030;stroke-width:5.82726288;stroke-linecap:round;stroke-linejoin:round;stroke-miterlimit:4;stroke-dasharray:none;stroke-opacity:1" d="M99.6 885.516c5.362-1.673 27.757-1.093 38.08-16.892 10.321-15.8-6.404-56.81-37.503-51.88-23.207 3.68-24.752 36.308-22.416 43.169 4.43 13.006 16.477 27.276 21.839 25.603zm-23.345-.323c-20.812 12.487-10.625 77.301-7.61 79.539 3.651 2.709 19.056 3.187 25.3-20.747-9.365 34.34-2.964 85.796 7.442 88.398 15.215.057 19.89-39.018 28.76-46.869-1.04 16.65 8.543 39.637 16.347 38.596 2.22-.296 9.298-8.153 8.534-21.402-1.615-28.013-1.747-71.741-3.236-88.868 21.269-27.308 46.731-73.393 39.447-82.758-7.284-9.365-37.981 22.373-47.867 38.502" transform="translate(0 -796.362)"/></svg>
