<svg xmlns="http://www.w3.org/2000/svg" width="48" height="48"><path fill-rule="evenodd" fill="#1B1817" d="M23.996.89C12.363.876 2.441 9.31.578 20.79c-1.86 11.483 4.89 22.616 15.93 26.276 1.187.215 1.62-.511 1.62-1.144 0-.563-.019-2.05-.03-4.027-6.594 1.43-7.985-3.176-7.985-3.176-1.074-2.739-2.629-3.465-2.629-3.465-2.152-1.469.164-1.441.164-1.441 2.375.164 3.63 2.44 3.63 2.44 2.109 3.622 5.542 2.579 6.894 1.97.21-1.532.824-2.575 1.504-3.164-5.262-.598-10.793-2.637-10.793-11.711 0-2.59.922-4.7 2.437-6.36-.246-.597-1.058-3.011.23-6.27 0 0 1.99-.636 6.516 2.43a22.6 22.6 0 0 1 5.934-.8 22.6 22.6 0 0 1 5.934.8c4.523-3.066 6.503-2.433 6.503-2.433 1.297 3.265.485 5.676.239 6.273 1.52 1.657 2.433 3.77 2.433 6.356 0 9.105-5.539 11.11-10.816 11.695.852.727 1.605 2.176 1.605 4.387 0 3.164-.027 5.722-.027 6.496 0 .637.43 1.375 1.633 1.14 11.004-3.695 17.715-14.816 15.851-26.273C45.492 9.332 35.605.91 23.996.891"/></svg>
