<svg xmlns="http://www.w3.org/2000/svg" width="48" height="48"><path fill="#1DA1F2" d="M47.906 9.137a20.031 20.031 0 0 1-5.648 1.55 9.929 9.929 0 0 0 4.328-5.445 20.326 20.326 0 0 1-6.258 2.367 9.789 9.789 0 0 0-7.18-3.117c-5.433 0-9.84 4.406-9.84 9.832 0 .781.09 1.531.255 2.25-8.18-.387-15.43-4.312-20.282-10.254-.855 1.446-1.332 3.125-1.332 4.953a9.84 9.84 0 0 0 4.375 8.192 9.823 9.823 0 0 1-4.457-1.235v.125a9.845 9.845 0 0 0 7.895 9.653c-.828.222-1.7.344-2.594.344-.629 0-1.23-.063-1.832-.172 1.262 3.906 4.89 6.754 9.207 6.832a19.74 19.74 0 0 1-12.203 4.21A21.34 21.34 0 0 1 0 39.09c4.379 2.785 9.535 4.418 15.113 4.418 18.11 0 28-14.992 28-27.973 0-.418 0-.84-.031-1.262a19.946 19.946 0 0 0 4.922-5.093Zm0 0"/></svg>
