<svg xmlns="http://www.w3.org/2000/svg" width="48" height="48"><path fill="#3178C6" d="M3.75 0h40.5C46.32 0 48 1.68 48 3.75v40.5c0 2.07-1.68 3.75-3.75 3.75H3.75C1.68 48 0 46.32 0 44.25V3.75C0 1.68 1.68 0 3.75 0Zm0 0"/><path fill-rule="evenodd" fill="#FFF" d="M28.223 37.59v5.176c.84.433 1.836.757 2.988.972 1.152.215 2.363.325 3.637.325 1.242 0 2.418-.118 3.539-.356 1.117-.238 2.097-.629 2.937-1.176a5.947 5.947 0 0 0 2-2.133c.492-.882.739-1.968.739-3.265 0-.938-.141-1.758-.422-2.465a5.79 5.79 0 0 0-1.215-1.887 8.861 8.861 0 0 0-1.903-1.48 20.421 20.421 0 0 0-2.503-1.238 30.95 30.95 0 0 1-1.829-.817 9.38 9.38 0 0 1-1.375-.808 3.523 3.523 0 0 1-.879-.875 1.855 1.855 0 0 1-.304-1.043c0-.356.09-.676.273-.965.184-.285.446-.528.778-.735a4.215 4.215 0 0 1 1.23-.476 7.176 7.176 0 0 1 1.621-.168c.953.008 1.903.14 2.82.394.485.133.954.305 1.415.508.445.2.87.438 1.273.711v-4.836a12.97 12.97 0 0 0-2.586-.672c-.934-.148-2.004-.218-3.215-.218-1.23 0-2.394.132-3.496.394a8.955 8.955 0 0 0-2.906 1.238 6.17 6.17 0 0 0-1.985 2.145c-.488.87-.73 1.906-.73 3.117 0 1.543.445 2.86 1.336 3.95.89 1.09 2.242 2.011 4.055 2.765.714.293 1.379.578 1.996.86.613.28 1.144.57 1.593.87.446.305.805.633 1.063.989a2.02 2.02 0 0 1 .145 2.144c-.16.285-.407.535-.739.746a4.065 4.065 0 0 1-1.23.492c-.489.122-1.067.18-1.723.18a9.976 9.976 0 0 1-6.398-2.363ZM19.59 24.703h6.66v-4.265H7.687v4.265h6.625v18.985h5.278Zm0 0"/></svg>
