<svg xmlns="http://www.w3.org/2000/svg" width="48" height="48"><path fill-rule="evenodd" fill="#1793D1" d="M23.996 4.059c-1.773 4.351-2.848 7.199-4.82 11.421 1.21 1.286 2.699 2.782 5.113 4.47-2.598-1.067-4.367-2.141-5.691-3.255-2.532 5.278-6.493 12.797-14.535 27.246 6.32-3.648 11.218-5.898 15.785-6.757a11.691 11.691 0 0 1-.301-2.707l.008-.204c.101-4.046 2.207-7.164 4.703-6.949 2.496.211 4.437 3.668 4.336 7.715-.02.762-.106 1.496-.254 2.176 4.515.883 9.363 3.129 15.598 6.726-1.227-2.261-2.325-4.304-3.376-6.246-1.648-1.28-3.37-2.945-6.882-4.746 2.414.625 4.14 1.348 5.488 2.16C28.512 15.27 27.652 12.633 23.996 4.06Zm0 0"/></svg>
