<?xml version="1.0" encoding="UTF-8" standalone="no"?>
<!-- Created with Inkscape (http://www.inkscape.org/) -->

<svg
   width="256"
   height="256"
   viewBox="0 0 67.73333 67.733335"
   version="1.1"
   id="svg5"
   xmlns="http://www.w3.org/2000/svg"
   xmlns:svg="http://www.w3.org/2000/svg">
  <defs
     id="defs2" />
  <g
     id="layer1">
    <path
       style="color:#000000;fill:#877523;-inkscape-stroke:none"
       d="M 128,1.7988281 124.5625,7.75 91.566406,64.894531 18.707031,64.898437 55.130859,128 l -36.423828,63.10156 72.859375,0.004 36.433594,63.0957 36.43359,-63.0957 72.85938,-0.004 L 200.86914,128 l 36.42383,-63.101563 -72.85938,-0.0039 z m 0,15.8730469 31.85156,55.158203 63.69727,0.0059 L 191.70508,128 l 31.84375,55.16406 -63.69727,0.006 L 128,238.32812 96.148437,183.16992 32.451172,183.16406 64.294922,128 32.451172,72.835937 l 63.697265,-0.0059 z"
       id="path976"
       transform="scale(0.26458333)" />
    <g
       id="g1196"
       style="stroke:#877523;stroke-width:1.5">
      <path
         style="color:#000000;fill:#877523;stroke:none;-inkscape-stroke:none"
         d="M 33.117187,2.5761719 V 31.068359 l -7.634765,-13.222656 -1.298828,0.75 7.634765,13.222656 -24.6757809,-14.246093 -0.75,1.298828 24.6738279,14.246093 H 15.798828 v 1.5 h 15.267578 l -24.6738279,14.246094 0.75,1.298828 24.6757809,-14.246093 -7.634765,13.222656 1.298828,0.75 7.634765,-13.222656 v 28.492187 h 1.5 V 36.667969 L 42.25,49.888672 l 1.300781,-0.75 -7.634765,-13.222656 24.673828,14.246093 0.75,-1.298828 -24.673828,-14.246094 h 15.267578 v -1.5 H 36.666016 l 24.673828,-14.246093 -0.75,-1.298828 -24.673828,14.246093 7.634765,-13.222656 -1.300781,-0.75 -7.632813,13.220703 V 2.5761719 Z"
         id="path1021" />
    </g>
  </g>
</svg>
