<svg width="256" height="256" viewBox="0 0 67.733 67.733" xmlns="http://www.w3.org/2000/svg"><path style="color:#000;fill:#877523;-inkscape-stroke:none" d="m128 1.799-3.438 5.951-32.996 57.145-72.859.003L55.131 128l-36.424 63.102 72.86.004L128 254.2l36.434-63.095 72.859-.004L200.869 128l36.424-63.102-72.86-.003zm0 15.873 31.852 55.158 63.697.006L191.705 128l31.844 55.164-63.697.006L128 238.328 96.148 183.17l-63.697-.006L64.295 128 32.45 72.836l63.697-.006z" transform="scale(.26458)"/><g style="stroke:#877523;stroke-width:1.5"><path style="color:#000;fill:#877523;stroke:none;-inkscape-stroke:none" d="M33.117 2.576v28.492l-7.635-13.222-1.298.75 7.634 13.222L7.143 17.572l-.75 1.3 24.673 14.245H15.8v1.5h15.267L6.393 48.863l.75 1.3 24.675-14.247-7.634 13.223 1.298.75 7.635-13.223v28.492h1.5v-28.49l7.633 13.22 1.3-.75-7.634-13.222L60.59 50.162l.75-1.299-24.674-14.246h15.268v-1.5H36.666L61.34 18.871l-.75-1.299-24.674 14.246 7.635-13.222-1.301-.75-7.633 13.22V2.576Z" stroke="none"/></g></svg>