<svg xmlns="http://www.w3.org/2000/svg" width="42" height="47.255"><path fill="#5C8DBC" d="M41.93 13.898c0-.793-.172-1.492-.512-2.093-.336-.59-.844-1.086-1.52-1.477C34.316 7.11 28.73 3.898 23.148.68c-1.503-.871-2.96-.84-4.457.043-2.218 1.308-13.343 7.683-16.66 9.601-1.363.793-2.027 2-2.027 3.574C0 20.371.004 26.844 0 33.316c0 .778.164 1.461.488 2.055.34.61.852 1.117 1.543 1.52 3.313 1.918 14.442 8.293 16.66 9.601 1.497.883 2.954.914 4.457.043 5.582-3.219 11.172-6.43 16.754-9.648.692-.399 1.203-.91 1.54-1.52.328-.59.488-1.277.488-2.05v-19.42"/><path fill="#1A4674" d="M21.031 23.543.488 35.371c.34.61.852 1.117 1.543 1.52 3.313 1.918 14.442 8.293 16.66 9.601 1.497.883 2.954.914 4.457.043 5.582-3.219 11.172-6.43 16.754-9.648.692-.399 1.203-.91 1.54-1.52l-20.41-11.824"/><path fill="#1A4674" d="M14.945 27.047a6.932 6.932 0 0 0 12.063-.04l-5.977-3.464-6.086 3.504"/><path fill="#1B598E" d="M41.93 13.898c0-.793-.172-1.492-.512-2.093L21.031 23.543l20.41 11.824c.329-.59.489-1.277.489-2.05v-19.42"/><path fill="#FFF" d="M40.809 24.39H39.21v1.594h-1.594v-1.593h-1.594v-1.598h1.594v-1.594h1.594v1.594h1.598v1.598m-5.82 0H33.39v1.593h-1.594v-1.593h-1.594v-1.598h1.594v-1.594h1.594v1.594h1.597v1.598"/><path fill="#FFF" d="M27.008 27.008a6.929 6.929 0 0 1-12.063.039 6.936 6.936 0 0 1 6.02-10.375 6.924 6.924 0 0 1 5.996 3.457l6.062-3.488c-2.41-4.16-6.906-6.957-12.058-6.957-7.692 0-13.926 6.234-13.926 13.925 0 2.52.672 4.887 1.848 6.93a13.912 13.912 0 0 0 12.078 6.992c5.18 0 9.695-2.824 12.094-7.02l-6.051-3.503"/></svg>
