<svg xmlns="http://www.w3.org/2000/svg" width="48" height="48"><path fill="#2496ED" d="M36.566 42.672c-1.218-.098-2.332-.785-3.039-1.867-.71-1.098-.816-2.625-.261-3.844.379-.84 1.226-1.672 2.066-2.035 1.254-.543 2.773-.406 3.883.347.293.2.793.68 1.023.98.235.306.547.958.649 1.34.09.356.144.985.101 1.216a.731.731 0 0 1-.375.488c-.144.074-.191.078-3.129.086l-2.984.012.023.082c.012.043.082.203.157.351.195.406.68.883 1.101 1.09.172.082.418.18.547.215.29.074.953.082 1.242.015.293-.07.75-.304 1-.507.297-.243.422-.301.637-.301.316 0 .531.137.664.422.149.32.055.656-.266.941a3.862 3.862 0 0 1-1.652.875c-.183.047-.98.145-1.043.129a5.876 5.876 0 0 0-.344-.035Zm2.844-4.856c-.086-.277-.344-.687-.601-.945-.676-.68-1.59-.937-2.504-.703-.496.125-1.043.469-1.344.848-.156.195-.457.742-.457.84 0 .03.598.042 2.465.042h2.465ZM3.305 42.617A4.096 4.096 0 0 1 .168 39.75c-.18-.629-.188-1.512-.02-2.16.332-1.281 1.387-2.399 2.641-2.805.48-.152.703-.187 1.277-.187.907 0 1.551.195 2.27.68.144.097.273.175.281.175.012 0 .02-.851.024-1.887 0-1.761.004-1.898.066-2.035.133-.289.348-.418.684-.418.355 0 .62.203.707.547.027.117.035 1.2.027 3.867-.016 3.625-.016 3.707-.094 4.02-.199.82-.543 1.406-1.18 2.016a3.816 3.816 0 0 1-1.746.992c-.44.117-1.347.148-1.8.062Zm1.382-1.496C5.2 41 5.79 40.613 6.09 40.2c.625-.851.715-1.785.265-2.703-.14-.289-.222-.402-.48-.66s-.371-.344-.66-.484a2.44 2.44 0 0 0-1.149-.278c-.414 0-.75.082-1.148.278a2.626 2.626 0 0 0-1.34 1.656c-.074.293-.082.926-.016 1.203.125.504.497 1.102.875 1.402.653.52 1.446.7 2.25.508Zm7.477 1.48c-.797-.171-1.351-.468-1.945-1.035-.754-.718-1.149-1.511-1.254-2.52a3.97 3.97 0 0 1 1.07-3.171 3.998 3.998 0 0 1 3.367-1.27c.227.028.559.086.739.137 1.437.414 2.582 1.684 2.84 3.149.07.398.066 1.156-.004 1.527-.286 1.512-1.454 2.742-2.997 3.152-.425.114-1.367.13-1.816.032Zm1.461-1.484a3.25 3.25 0 0 0 .527-.203c.25-.121.371-.215.641-.48.27-.27.36-.387.484-.641.207-.426.274-.703.274-1.168 0-.445-.067-.734-.254-1.117-.774-1.578-2.906-1.922-4.129-.664-.227.234-.297.336-.461.652-.21.41-.254.617-.254 1.149 0 .414.016.511.098.765.133.403.328.719.629 1.024a2.543 2.543 0 0 0 2.445.683Zm7.516 1.5c-.844-.156-1.536-.539-2.16-1.191a3.702 3.702 0 0 1-.762-1.098c-.469-.992-.492-2.234-.055-3.281.352-.852 1.18-1.695 2.05-2.106 1.391-.648 3.231-.39 4.298.606.222.21.308.418.277.68a.705.705 0 0 1-.637.636c-.238.028-.386-.027-.687-.25-.914-.68-2.027-.726-2.969-.12-1.414.91-1.562 2.933-.3 4.066.238.21.753.48 1.085.566.297.078.953.078 1.242 0 .329-.09.63-.234.895-.434.129-.101.293-.203.363-.226a.75.75 0 0 1 .852.25c.152.191.18.527.062.773-.168.348-1.043.883-1.742 1.067-.457.117-1.355.148-1.812.062Zm4.937-.023a.77.77 0 0 1-.273-.266l-.11-.176V31.594l.114-.16a.688.688 0 0 1 .617-.32c.273 0 .46.097.617.32l.113.16.016 2.965.02 2.964 2.234-1.453c1.847-1.199 2.265-1.457 2.402-1.476.586-.09 1.04.547.77 1.078-.075.152-.188.23-1.657 1.183-.867.563-1.578 1.032-1.578 1.047 0 .012.715.825 1.586 1.805.985 1.102 1.621 1.844 1.664 1.941.16.344.008.77-.332.946a.83.83 0 0 1-.633.031c-.152-.066-.226-.145-1.992-2.14a125.03 125.03 0 0 0-1.55-1.727c-.032-.024-.188.058-.489.254l-.441.289-.004 1.386v1.391l-.094.192c-.129.261-.312.378-.61.398a.604.604 0 0 1-.39-.074Zm16.215.02a.73.73 0 0 1-.352-.36c-.062-.137-.066-.32-.066-3.617-.004-2.36.008-3.504.035-3.575.09-.234.434-.484.672-.484.438-.004.785.363.785.82v.098l.137-.11c.715-.558 1.71-.85 2.687-.792 1.16.066 1.782.41 1.782.984a.742.742 0 0 1-.457.695c-.188.079-.336.07-.633-.035-.93-.324-1.895-.16-2.633.446-.316.257-.648.765-.797 1.214-.058.18-.066.403-.082 2.223-.023 2.238-.012 2.117-.266 2.36a.865.865 0 0 1-.222.156c-.149.054-.465.043-.59-.024Zm2.68-.04c-.461-.23-.34-.879.175-.945.301-.043.555.184.555.5a.479.479 0 0 1-.266.45.48.48 0 0 1-.464-.005Zm.496-.12c.265-.25.136-.696-.211-.75a.442.442 0 0 0-.41.175c-.075.105-.075.332 0 .473.109.214.441.27.62.101Zm-.461-.325v-.258h.133c.23 0 .343.113.214.223-.05.039-.05.05 0 .105.063.07.075.184.02.184-.02 0-.055-.043-.082-.102-.027-.054-.074-.101-.11-.11-.05-.01-.066.013-.066.099 0 .078-.015.113-.054.113-.043 0-.055-.051-.055-.254Zm.285-.102c.012-.066-.004-.082-.082-.082-.074 0-.094.016-.094.094s.016.09.082.082c.055-.008.086-.039.094-.094ZM19.914 27.88c-3.055-.078-5.75-.707-7.43-1.73-1.328-.813-2.484-2.165-3.265-3.829-.903-1.914-1.414-4.273-1.426-6.562l-.004-.86.094-.183c.117-.219.344-.434.574-.54l.168-.077 12.492-.02c6.871-.012 12.543-.035 12.602-.05.062-.016.285-.06.492-.102.445-.086 1-.254 1.262-.383.097-.05.187-.098.191-.102.008-.007-.07-.164-.172-.351a5.842 5.842 0 0 1-.504-1.41c-.047-.235-.062-.489-.062-.973.004-.57.015-.719.101-1.117A7.084 7.084 0 0 1 36.06 7.12l.277-.41.168.098c1.094.62 2 1.558 2.488 2.582.172.367.34.851.414 1.218.028.145.063.274.07.286.012.007.27-.012.579-.047 1.324-.149 2.62.023 3.515.468.258.13.746.489.746.555 0 .078-.168.543-.273.75-.332.664-.996 1.406-1.645 1.832-.914.606-1.84.887-3.074.934l-.629.023-.195.473c-1.555 3.816-3.477 6.469-6.129 8.46-2.516 1.895-5.793 3.079-9.473 3.43-.753.07-2.242.125-2.984.106Zm-8.95-14.606-.093-.074v-1.543c0-1.465 0-1.55.066-1.633l.07-.085 1.618-.008c.89-.008 1.672-.004 1.738.008a.463.463 0 0 1 .192.093c.07.07.07.137.07 1.606v1.535l-.09.09-.09.086h-1.691c-1.656 0-1.695 0-1.79-.075Zm4.446-.011-.09-.09v-1.52c0-.918.012-1.543.035-1.586.07-.132.22-.144 1.844-.144 1.621 0 1.77.012 1.84.144.023.043.035.672.035 1.602V13.2l-.094.074c-.093.075-.132.075-1.789.075H15.5Zm4.527.011-.093-.074v-1.531c0-.93.011-1.559.035-1.602.07-.132.219-.144 1.84-.144 1.625 0 1.773.012 1.843.144.024.043.036.668.036 1.586v1.52l-.09.09-.09.086h-1.691c-1.657 0-1.696 0-1.79-.075Zm4.508.051c-.023-.008-.07-.066-.097-.12-.047-.09-.055-.352-.055-1.583v-1.476l.086-.102.09-.105h3.433l.082.085.082.082.012 1.47c.004.804 0 1.503-.012 1.546a.397.397 0 0 1-.09.156c-.07.07-.128.07-1.777.07-.941-.003-1.726-.011-1.754-.023Zm4.457-.062-.086-.09v-1.52c0-.918.012-1.543.036-1.586.07-.132.218-.144 1.84-.144 1.624 0 1.773.012 1.843.144.024.043.035.672.035 1.602V13.2l-.093.074c-.094.075-.133.075-1.79.075h-1.695ZM15.391 9.117c-.07-.07-.07-.12-.07-1.617V5.957l.081-.078c.086-.078.09-.078 1.801-.078h1.715l.078.082c.078.086.078.094.078 1.625 0 1.488 0 1.539-.07 1.61-.07.073-.121.073-1.805.073-1.687 0-1.734 0-1.808-.074Zm4.523 0c-.07-.07-.07-.12-.07-1.617V5.957l.082-.078c.086-.078.09-.078 1.8-.078h1.715l.079.082c.078.086.078.094.078 1.625 0 1.488 0 1.539-.07 1.61-.075.073-.126.073-1.81.073-1.683 0-1.734 0-1.804-.074Zm4.465-.004c-.067-.07-.07-.152-.07-1.625v-1.55l.086-.07c.082-.067.168-.067 1.796-.067 1.657 0 1.715 0 1.786.07.039.04.078.11.09.156.011.043.015.743.011 1.547-.012 1.38-.015 1.469-.082 1.54-.066.077-.086.077-1.808.077-1.723 0-1.739 0-1.81-.078Zm.066-4.066a.32.32 0 0 1-.097-.125c-.047-.086-.055-.348-.055-1.582V1.863l.086-.101.09-.102h3.433l.164.164.012 1.469c.004.809 0 1.504-.012 1.55a.412.412 0 0 1-.09.153c-.07.07-.128.074-1.777.07-.941 0-1.726-.011-1.754-.02Zm0 0"/></svg>
