<svg xmlns="http://www.w3.org/2000/svg" width="1316" height="1316"><path style="fill:#2496ed;fill-opacity:1" d="M1002.5 1169.97c-33.421-2.766-63.904-21.547-83.254-51.294-19.539-30.038-22.414-71.883-7.24-105.35 10.423-22.987 33.629-45.834 56.675-55.8 34.33-14.844 76.039-11.089 106.487 9.588 8.043 5.462 21.725 18.569 28.065 26.886 6.361 8.344 14.978 26.2 17.702 36.683 2.529 9.728 4.014 27.02 2.862 33.3-.996 5.422-5.02 10.65-10.35 13.447-3.885 2.038-5.227 2.074-85.757 2.343l-81.81.272.618 2.228c.34 1.225 2.268 5.602 4.284 9.727 5.422 11.093 18.674 24.174 30.218 29.827 4.675 2.29 11.425 4.93 15 5.866 7.95 2.083 26.127 2.308 34 .42 8.052-1.93 20.633-8.289 27.507-13.903 8.085-6.605 11.483-8.21 17.378-8.21 8.715 0 14.62 3.728 18.22 11.5 4.107 8.872 1.564 18.014-7.204 25.902-12.67 11.398-28.353 19.688-45.401 24-5.017 1.268-26.867 3.917-28.5 3.455-.275-.078-4.55-.477-9.5-.887zm77.952-133.22c-2.289-7.541-9.429-18.77-16.433-25.843-18.526-18.709-43.634-25.778-68.692-19.34-13.577 3.487-28.54 12.928-36.837 23.242-4.307 5.354-12.49 20.432-12.49 23.014 0 .891 16.416 1.177 67.567 1.177h67.568zM90.655 1168.466c-40.549-7.649-74.653-38.826-86.075-78.69-4.926-17.191-5.147-41.374-.541-59.17 9.086-35.102 38.017-65.806 72.461-76.901 13.158-4.239 19.213-5.126 35-5.126 24.783 0 42.551 5.302 62.205 18.56 3.962 2.674 7.45 4.861 7.75 4.861.3 0 .555-23.288.567-51.75.02-48.237.148-52.022 1.874-55.75 3.669-7.924 9.486-11.5 18.709-11.5 9.773 0 17.02 5.611 19.372 15 .812 3.241 1.024 32.893.758 106-.363 99.474-.412 101.673-2.497 110.194-5.507 22.516-14.95 38.657-32.361 55.324-14.393 13.776-29.484 22.35-47.877 27.198-12.165 3.207-36.956 4.086-49.345 1.75zm37.845-41.058c14.08-3.328 30.21-13.913 38.5-25.264 17.091-23.405 19.591-48.96 7.255-74.144-3.855-7.87-6.122-10.973-13.207-18.084-7.092-7.117-10.175-9.384-18.05-13.272-10.915-5.388-20.11-7.61-31.498-7.61-11.387 0-20.583 2.222-31.497 7.61-17.692 8.734-31.684 26.03-36.693 45.356-2.082 8.034-2.308 25.376-.43 33 3.424 13.898 13.583 30.226 23.93 38.462 17.892 14.241 39.638 19.157 61.69 13.946zm205 40.622c-21.797-4.73-37.037-12.857-53.371-28.462-20.606-19.684-31.419-41.44-34.29-68.99-3.38-32.414 6.945-63.082 29.292-87.011 24.118-25.825 57.447-38.377 92.266-34.748 6.275.654 15.39 2.336 20.256 3.738 39.448 11.363 70.846 46.167 77.88 86.324 1.906 10.89 1.884 31.698-.045 41.869-7.85 41.38-39.932 75.11-82.158 86.38-11.672 3.116-37.474 3.581-49.83.9zm40-40.69c3.3-.801 9.825-3.321 14.5-5.6 6.891-3.361 10.219-5.858 17.582-13.193 7.395-7.366 9.856-10.627 13.245-17.547 5.735-11.71 7.521-19.327 7.504-32-.017-12.205-1.818-20.14-6.95-30.614-21.239-43.352-79.625-52.755-113.185-18.227-6.269 6.45-8.175 9.144-12.666 17.9-5.726 11.167-6.985 16.868-6.942 31.441.033 11.344.377 14.019 2.7 21 3.672 11.038 8.967 19.67 17.212 28.057 17.425 17.725 42.448 24.74 67 18.783zm206.155 41.126c-23.145-4.366-42.15-14.853-59.31-32.727-9.666-10.068-15.196-18.036-20.9-30.116-12.847-27.201-13.396-61.26-1.45-89.956 9.685-23.264 32.318-46.456 56.278-57.668 38.082-17.82 88.545-10.699 117.749 16.618 6.143 5.746 8.487 11.434 7.645 18.548-1.134 9.571-7.914 16.366-17.46 17.497-6.54.774-10.68-.726-18.9-6.851-25.027-18.648-55.546-19.894-81.35-3.321-38.797 24.916-42.894 80.453-8.225 111.48 6.454 5.776 20.62 13.194 29.768 15.589 8.055 2.108 26.086 2.086 33.98-.041 9.057-2.441 17.315-6.462 24.52-11.939 3.575-2.717 8.075-5.514 10-6.216 8.356-3.044 17.656-.291 23.397 6.925 4.163 5.232 4.872 14.46 1.627 21.163-4.61 9.523-28.596 24.197-47.75 29.211-12.461 3.263-37.13 4.16-49.619 1.804zM715 1167.75c-2.965-1.585-5.523-4.057-7.5-7.25l-3-4.843V866.172l3.042-4.327c4.291-6.107 9.498-8.812 16.958-8.812 7.46 0 12.666 2.705 16.958 8.811l3.042 4.327.5 81.303.5 81.302 61.286-39.832c50.634-32.909 62.08-39.951 65.85-40.517 16.022-2.402 28.46 15.042 21.114 29.611-2.1 4.165-5.133 6.329-45.485 32.462-23.78 15.4-43.242 28.28-43.25 28.623-.008.342 19.594 22.617 43.561 49.5 26.91 30.184 44.355 50.558 45.612 53.274 4.36 9.417.216 21.11-9.163 25.853-5.14 2.6-12.439 2.962-17.307.861-4.203-1.814-6.19-3.945-54.682-58.611-22.686-25.575-41.813-46.909-42.505-47.409-.862-.623-5.075 1.58-13.385 7l-12.127 7.909-.01 38.054-.008 38.053-2.623 5.264c-3.56 7.144-8.598 10.428-16.744 10.917-5.02.301-6.95-.07-10.633-2.038zm444.5.588c-4.641-2.446-7.594-5.47-9.61-9.838-1.753-3.799-1.847-8.782-1.868-99.185-.015-64.74.318-96.085 1.04-98 2.431-6.45 11.87-13.252 18.438-13.287 11.904-.065 21.5 9.976 21.5 22.499v2.641l3.75-2.932c19.616-15.338 46.889-23.417 73.681-21.827 31.796 1.886 48.855 11.311 48.855 26.991 0 8.502-4.819 15.835-12.518 19.052-5.15 2.152-9.296 1.94-17.39-.887-25.486-8.905-51.943-4.453-72.203 12.148-8.67 7.105-17.746 20.97-21.787 33.287-1.622 4.943-1.86 11.121-2.346 61-.599 61.331-.23 58.019-7.207 64.689-1.834 1.753-4.602 3.666-6.15 4.25-4.101 1.546-12.72 1.226-16.185-.6zm73.52-1.09c-12.62-6.34-9.342-24.054 4.803-25.951 8.284-1.111 15.17 5.109 15.17 13.703 0 5.646-2.649 10.134-7.276 12.33-4.506 2.138-8.328 2.113-12.697-.082zm13.594-3.355c7.227-6.79 3.775-18.982-5.816-20.538-4.017-.652-8.835 1.432-11.237 4.862-2.002 2.858-2 9.032 0 12.908 3.037 5.873 12.166 7.355 17.05 2.768zM1234 1155v-7h3.566c6.362 0 9.415 3.11 5.909 6.02-1.367 1.135-1.367 1.442 0 2.952 1.69 1.868 2.055 5.028.58 5.028-.52 0-1.536-1.232-2.258-2.738s-2.096-2.889-3.055-3.073c-1.351-.26-1.742.354-1.742 2.738 0 2.065-.492 3.073-1.5 3.073-1.19 0-1.5-1.444-1.5-7zm7.82-2.75c.26-1.833-.158-2.25-2.25-2.25-2.093 0-2.57.477-2.57 2.57 0 2.092.417 2.51 2.25 2.25 1.446-.206 2.364-1.124 2.57-2.57zM546 764.343c-83.822-2.152-157.674-19.36-203.735-47.475-36.43-22.236-68.11-59.334-89.555-104.868-24.716-52.482-38.78-117.242-39.093-180l-.117-23.5 2.672-5.063c3.194-6.052 9.367-11.869 15.706-14.8l4.622-2.137 342.5-.556c188.375-.306 343.85-.903 345.5-1.326 1.65-.424 7.725-1.68 13.5-2.793 12.209-2.352 27.355-6.99 34.5-10.564 2.75-1.376 5.135-2.62 5.3-2.764.164-.144-1.94-4.478-4.676-9.63-5.868-11.05-11.37-26.433-13.816-38.626-1.295-6.455-1.744-13.449-1.716-26.741.032-15.56.397-19.703 2.69-30.558 5.105-24.172 14.972-47.716 28.365-67.68l7.539-11.238 4.657 2.644c29.96 17.005 54.77 42.783 68.144 70.804 4.797 10.05 9.316 23.316 11.368 33.371.824 4.04 1.72 7.565 1.99 7.836.27.27 7.391-.284 15.824-1.233 36.32-4.085 71.834.627 96.331 12.78 7.094 3.52 20.5 13.463 20.5 15.205 0 2.155-4.626 14.897-7.467 20.569-9.129 18.223-27.38 38.58-45.089 50.296-25.05 16.571-50.43 24.265-84.272 25.547l-17.328.657-5.298 13c-42.605 104.56-95.28 177.272-168.046 231.967-68.979 51.848-158.82 84.359-259.72 93.984-20.625 1.968-61.482 3.412-81.78 2.892zM300.635 363.927 298 361.855v-42.317c0-40.168.097-42.436 1.91-44.677l1.912-2.361 44.339-.302c24.386-.166 45.827-.029 47.645.306 1.818.334 4.18 1.482 5.25 2.552 1.864 1.864 1.944 3.68 1.944 43.99v42.045l-2.455 2.454-2.454 2.455h-46.41c-45.439 0-46.466-.043-49.046-2.073zm121.82-.382L420 361.091V319.48c0-25.23.385-42.332.979-43.44 1.99-3.72 6-4.04 50.521-4.04 44.522 0 48.53.32 50.521 4.04.594 1.11.979 18.342.979 43.822v41.993l-2.635 2.072c-2.58 2.03-3.607 2.073-49.045 2.073h-46.41zm124.18.382L544 361.855v-41.993c0-25.48.385-42.713.979-43.823 1.99-3.718 6-4.039 50.521-4.039 44.522 0 48.53.32 50.521 4.04.594 1.108.979 18.21.979 43.44v41.61l-2.455 2.455-2.454 2.455h-46.41c-45.439 0-46.466-.043-49.046-2.073zm123.594 1.404c-.7-.282-1.937-1.799-2.75-3.372-1.234-2.386-1.479-9.57-1.479-43.354v-40.493l2.413-2.806 2.414-2.806H764.944l2.278 2.277 2.278 2.277.29 40.223c.159 22.123.035 41.247-.276 42.498-.31 1.252-1.453 3.164-2.54 4.25-1.912 1.913-3.453 1.972-48.724 1.896-25.712-.043-47.322-.309-48.021-.59zm122.226-1.786L790 361.091V319.48c0-25.23.385-42.332.979-43.44 1.99-3.72 6-4.04 50.521-4.04 44.522 0 48.53.32 50.521 4.04.594 1.11.979 18.342.979 43.822v41.993l-2.635 2.072c-2.58 2.03-3.607 2.073-49.045 2.073h-46.41zM422 250c-1.937-1.937-2-3.333-2-44.326V163.35l2.314-2.175c2.309-2.168 2.435-2.174 49.326-2.174h47.011l2.175 2.314c2.161 2.301 2.174 2.564 2.174 44.5 0 40.853-.063 42.25-2 44.186-1.944 1.944-3.333 2-49.5 2s-47.556-.056-49.5-2zm124 0c-1.937-1.937-2-3.333-2-44.326V163.35l2.314-2.175c2.309-2.168 2.435-2.174 49.326-2.174h47.011l2.175 2.314c2.161 2.301 2.174 2.564 2.174 44.5 0 40.853-.063 42.25-2 44.186-1.944 1.944-3.333 2-49.5 2s-47.556-.056-49.5-2zm122.405-.105c-1.81-2-1.905-4.215-1.905-44.588v-42.484l2.36-1.911c2.25-1.822 4.574-1.912 49.25-1.912 45.355 0 46.955.065 48.865 1.975 1.086 1.086 2.228 2.998 2.539 4.25.31 1.251.435 20.34.275 42.421-.272 37.85-.398 40.266-2.194 42.25-1.886 2.083-2.39 2.104-49.595 2.104-47.213 0-47.71-.021-49.595-2.105zm1.824-111.564c-.7-.282-1.937-1.799-2.75-3.372-1.234-2.386-1.479-9.57-1.479-43.354V51.112l2.413-2.806 2.414-2.806H764.944l2.278 2.277 2.278 2.277.29 40.223c.159 22.123.035 41.247-.276 42.498-.31 1.252-1.453 3.164-2.54 4.25-1.912 1.913-3.453 1.972-48.724 1.896-25.712-.043-47.322-.309-48.021-.59z"/></svg>