<svg xmlns="http://www.w3.org/2000/svg" width="48" height="48"><path fill="#F03C2E" d="M47.094 21.863 26.137.91a3.09 3.09 0 0 0-4.371 0l-4.352 4.352 5.52 5.52a3.67 3.67 0 0 1 4.648 4.679l5.32 5.32a3.672 3.672 0 0 1 3.801.871 3.678 3.678 0 0 1 0 5.203 3.678 3.678 0 0 1-6.004-4l-4.96-4.96v13.054c.347.176.679.406.972.696a3.685 3.685 0 0 1 0 5.203 3.678 3.678 0 0 1-5.203 0 3.678 3.678 0 0 1 1.207-6.004v-13.18a3.643 3.643 0 0 1-1.207-.8 3.693 3.693 0 0 1-.793-4.024l-5.442-5.442L.906 21.766a3.096 3.096 0 0 0 0 4.375l20.957 20.953a3.09 3.09 0 0 0 4.371 0l20.86-20.856a3.096 3.096 0 0 0 0-4.375"/></svg>
