<svg xmlns="http://www.w3.org/2000/svg" width="48" height="48"><path fill="#E44D26" d="M10.09 44.145 6.996 9.434h34.008L37.906 44.14 23.98 48Zm0 0"/><path fill="#F16529" d="m24 45.05 11.254-3.12 2.644-29.66H24Zm0 0"/><path fill="#EBEBEB" d="M24 25.145h-5.633l-.39-4.36H24v-4.258H13.324l.102 1.145 1.047 11.73H24Zm0 11.058-.02.004-4.742-1.281-.3-3.395h-4.274l.598 6.684 8.718 2.422.02-.004Zm0 0"/><path d="M10.16 0h2.164v2.137h1.98V0h2.165v6.473h-2.164V4.305h-1.98v2.168H10.16Zm9.153 2.148h-1.907V0h5.977v2.148h-1.906v4.325h-2.165ZM24.328 0h2.258l1.387 2.273L29.359 0h2.258v6.473h-2.156V3.266l-1.488 2.3h-.04l-1.488-2.3v3.207h-2.117Zm8.363 0h2.164v4.332h3.043v2.14h-5.207Zm0 0"/><path fill="#FFF" d="M23.984 25.145v4.257h5.243l-.493 5.524-4.75 1.281v4.426l8.727-2.418.066-.719 1-11.207.106-1.144Zm0-8.618v4.258H34.27l.085-.957.192-2.156.101-1.145Zm0 0"/></svg>
