<svg xmlns="http://www.w3.org/2000/svg" width="48" height="48"><path fill="#007699" d="M13.973 27.547c0-1.04 3.93-1.617 5.761-1.758l.172.102c-.703.125-3.52.62-3.52 1.273 0 .703 4.325 1.168 6.833 1.168 4.261 0 7.16-.645 7.941-.86l1.09.633c-.746.368-3.953 1.329-9.031 1.329-5.645 0-9.246-1.106-9.246-1.887m8.605 14.535c-2.234.02-4.96-.164-7.258-.55l-.21.12c2.285.672 5.464 1.078 8.96 1.047 6.867-.062 12.434-1.765 12.547-3.812l-.082-.047c-.46.562-3.43 3.152-13.957 3.242m.582-1.32c5.621-.047 11.906-1.149 11.89-2.996 0-.336-.218-.567-.41-.703l-.09.054c-.519 1.43-4.91 2.488-11.398 2.543-4.187.04-9.984-.965-9.996-2.125-.008-1.16 2.746-1.8 2.746-1.8l-.195-.11c-1.844.254-5.25 1.14-5.238 2.418.015 1.844 7.84 2.762 12.691 2.719m12.66-12.723c-.113 2.168-2.117 3.52-4.117 4.66l.18.106c2.137-.602 5.949-2.352 5.633-5.043-.157-1.34-1.383-2.301-2.98-2.301-.442 0-.88.07-1.302.2v.003l-.074.188c1.43-.278 2.735.765 2.66 2.187M19.312 34.48c-.652.133-2.074.458-2.074 1.149 0 .957 3.043 1.691 5.977 1.691 4.043 0 5.695-1.039 5.77-1.093l-1.68-.973c-.715.172-1.918.437-4.086.437-2.418 0-3.992-.414-3.992-.867 0-.094.058-.21.171-.293Zm9.926-3.226c-.93.262-3.023.691-6.015.691-2.938 0-5.336-.5-5.344-1.093-.004-.395.473-.567.473-.567l-.086-.047c-1.407.246-2.711.633-2.707 1.207.015 1.043 4.007 1.828 7.66 1.828 3.101 0 6.086-.52 7.43-1.203Zm0 0"/><path fill="#F7901E" d="M28.438 7.973c0 5.754-7.887 7.957-7.887 12.047 0 2.87 1.902 4.675 2.957 5.812l-.086.05c-1.328-.831-4.832-2.925-4.832-6.378 0-4.852 9.058-7.168 9.058-12.676.004-.5-.05-.996-.168-1.48l.09-.051c.29.36.867 1.262.867 2.676m2.594 5.093-.097-.05c-1.715.574-6.997 2.66-6.997 6.546 0 2.2 2.145 3.418 2.145 5.481 0 .734-.414 1.426-.754 1.836l.172.098c.895-.579 2.477-1.836 2.477-3.461 0-1.375-1.907-3.028-1.907-4.797 0-2.785 3.676-4.973 4.961-5.653"/></svg>
