<svg width="1024" height="1024" viewBox="0 0 270.93 270.93" xml:space="preserve" xmlns:xlink="http://www.w3.org/1999/xlink" xmlns="http://www.w3.org/2000/svg"><defs><linearGradient id="a"><stop style="stop-color:#3eb4ff;stop-opacity:1" offset="0"/><stop style="stop-color:#2688ff;stop-opacity:1" offset="1"/></linearGradient><linearGradient xlink:href="#a" id="b" x1="-319.28" y1="16.71" x2="-319.28" y2="239.99" gradientUnits="userSpaceOnUse" gradientTransform="translate(454.74 7.12)"/></defs><path style="fill:url(#b);fill-opacity:1;stroke-width:.15" d="M266.86 155.22c0 35.84-14.38 67.93-36.8 91.89-16.01 0-172.7-38.99-209.62-28.35a130.8 130.8 0 0 1-16.36-63.54c0-72.57 58.82-131.4 131.39-131.4 72.56 0 131.39 58.83 131.39 131.4z"/><path style="fill:#e7e7e7;fill-opacity:1;stroke-width:.264583" d="M60.31 244.66a93.23 93.23 0 0 1-14.82-34.31l-.48-2.32 9.39-9.97c5.16-5.48 9.42-9.94 9.47-9.9.04.05-2.07 6.8-4.69 14.99-2.62 8.2-4.7 14.96-4.63 15.04.07.07 4.46-3.02 9.75-6.87 13.34-9.72 17.05-12.1 24.95-15.93 26.68-12.96 55.65-14.63 89.95-5.18 7.67 2.11 8.67 2.26 15.61 2.26 5.41 0 6.4-.07 8.84-.62 9.02-2.02 16.22-6.45 21.2-13.05 1.77-2.35 1.57-2.55 2.3 2.3.65 4.42.65 18.27-.01 24.2-1.2 10.72-3.34 19.9-6.59 28.18-1.33 3.4-4.15 9.32-5.73 11.98l-.81 1.38H61.86z"/><path style="fill:#33a2fd;stroke-width:.264583" d="M88.29 47.91c.06-.1.2-1.94.3-4.07l.19-3.88-1.55-.15c-.84-.08-2.69-.22-4.1-.31l-2.54-.17-.15 1.02c-.08.55-.23 2.46-.32 4.24l-.17 3.23 2.2.1c4.71.18 6.03.18 6.14-.01z"/><path style="fill:#40cf95;fill-opacity:1;stroke-width:.264583" d="M142.13 143.31c-.32-.17-1.78-1.8-3.24-3.6-2.75-3.37-3.07-4.08-2.4-5.33.15-.28 2.62-2.42 5.49-4.77 2.87-2.34 5.26-4.36 5.3-4.49.09-.23-3.85-5.28-4.12-5.28-.07 0-1.3.95-2.72 2.12a24.01 24.01 0 0 1-3.27 2.37c-.96.36-1.75 0-2.9-1.34-1.1-1.29-1.3-2.71-.5-3.61.34-.39 4.13-3.57 5.33-4.47.06-.05-1.07-1.53-2.51-3.29-8.83-10.82-8.57-10.47-8.57-11.75 0-2.3 2.5-3.8 4.4-2.65.42.25 7.54 8.82 15.84 19.05 14.97 18.46 15.08 18.6 15.16 19.9.1 1.6-.56 2.57-2.03 3-1.54.47-2.56-.1-4.42-2.48-.86-1.1-1.7-1.96-1.88-1.9-.17.05-2.55 1.93-5.29 4.17a116.4 116.4 0 0 1-5.56 4.39c-.73.38-1.38.37-2.11-.04zM82.64 55.1c-3.2-.19-6.26-.46-6.8-.61a4.5 4.5 0 0 1-2.97-2.68c-.42-1.02-.42-1.6 0-8.53.24-4.09.55-7.88.68-8.43a4.97 4.97 0 0 1 3.08-3.09c1.05-.28 15.8.53 16.86.93A4.83 4.83 0 0 1 96.53 37c0 .64-.84 2.61-2.76 6.48a111.7 111.7 0 0 0-3.88 8.62c-.6 1.67-1.18 3.1-1.27 3.19a61 61 0 0 1-5.98-.2z"/><path style="fill:#33a2fd;stroke-width:.264583" d="M143.17 184.72c.18-.07.48-.07.66 0 .19.08.04.14-.33.14-.36 0-.5-.06-.33-.14zM133.26 184.71c.25-.06.61-.06.79.01.18.08-.03.13-.47.13-.44 0-.58-.07-.32-.14zM59.76 192.57c.27-.29.54-.53.61-.53.08 0-.08.24-.34.53-.27.3-.54.53-.61.53-.08 0 .08-.24.34-.53zM55.53 197.07c.26-.3.54-.53.61-.53.07 0-.08.24-.35.53-.26.29-.53.53-.6.53-.08 0 .08-.24.34-.53zM227.4 199.56c.01-.3.07-.37.16-.16.07.2.06.42-.02.5-.1.1-.15-.06-.14-.34zM50.9 202c0-.06.2-.27.46-.47.42-.33.43-.32.1.1-.34.44-.56.58-.56.37zM46.67 206.5c0-.06.2-.27.46-.47.42-.33.43-.32.1.1-.35.44-.56.58-.56.36zM32.7 221.26c.25-.27.52-.42.59-.35.07.07-.14.28-.46.47-.56.34-.56.33-.13-.12zM27.88 226.34c0-.06.2-.27.46-.47.42-.32.43-.32.1.1-.34.44-.56.59-.56.37zM23.38 231.1c0-.06.21-.26.47-.46.42-.33.42-.32.1.1-.35.44-.57.58-.57.36zM20.32 226.7c0-4.3.04-6.05.09-3.9.04 2.15.04 5.66 0 7.8-.05 2.15-.09.4-.09-3.9z"/><path style="fill:#fd6c1f;stroke-width:.264583" d="M34.88 196.64c0-2.4.76-10.44 1.36-14.36 1.55-10.25 3.81-18.28 7.5-26.66 8.7-19.7 25.87-37.51 45.84-47.52 3.3-1.65 8.35-3.87 8.82-3.87.13 0 1.44.94 2.91 2.1a49.16 49.16 0 0 0 19 8.84c1.07.22 1.99.45 2.06.52.06.07-.07.84-.3 1.71a14.16 14.16 0 0 0 2.36 11.8c.98 1.27 1 1.33.67 2.39-.9 3.02-.54 7.07.93 10.08.73 1.5 4.92 6.86 7.3 9.32 2.8 2.9 7.35 4.61 11.1 4.17 3.22-.37 5.45-1.37 8.5-3.8l2.01-1.62 1.03.43c1.37.59 5.78.8 7.72.37 3.53-.77 6.82-3 8.86-6a13.15 13.15 0 0 0 2.49-7.5c.16-2.9-.25-4.9-1.5-7.36-.45-.91-4.4-6.02-9.52-12.31l-8.74-10.76 1.24-1.12c.68-.62 1.61-1.52 2.06-2l.81-.87 3.03 1.03a95.8 95.8 0 0 1 38.12 24.04c8.12 8.32 13.17 15.74 15.45 22.71 3.67 11.23-.17 21.47-9.79 26.1-3.19 1.53-5.73 2.1-10.05 2.26-4.32.16-6.9-.2-12.17-1.64-11.97-3.3-21.49-5.15-32.15-6.26-5.23-.55-22.63-.47-27.65.13-14.88 1.78-28.16 5.6-40.75 11.72-1.69.82-3.1 1.44-3.14 1.4a1671 1671 0 0 1 7.93-25.24c4.41-13.82 7.98-25.16 7.93-25.21-.05-.05-13.8 14.44-30.55 32.2a5488.3 5488.3 0 0 1-30.6 32.3c-.06 0-.12-.69-.12-1.52zm78.52-99.09c-4.91-2.95-8.41-6.63-10.65-11.2-4.78-9.75-3.6-22.18 3.42-36.21 2.24-4.49 5.93-10.98 6.24-11 .08 0 .37.43.65.96.69 1.27 3.05 3.6 4.53 4.47 2.3 1.34 3.95 1.74 8.31 1.98 5.56.32 11.11 1.7 15.42 3.87a27.37 27.37 0 0 1 14.6 20.04c1.06 6.16-.17 12.51-3.53 18.27-1.12 1.92-5.33 6.77-5.88 6.77-.13 0-.97-.92-1.87-2.05-4.13-5.15-6.97-7.17-11.15-7.9-7.94-1.42-15.28 3.7-16.86 11.75-.18.9-.46 1.64-.62 1.64-.17 0-1.34-.63-2.61-1.39z"/><path style="fill:#262625;stroke-width:.264583" d="M44.75 246.77c-.66-.85-3.2-5.57-4.82-8.98-2.2-4.6-3.82-8.68-5.35-13.5-.63-2-1.22-3.6-1.3-3.57-.1.03-2.95 3.02-6.36 6.63l-6.2 6.57-.21-11.86c-.3-16.24.13-28.97 1.3-38.45 3.27-26.32 12.96-46.97 30.67-65.31C62.7 107.7 75.45 98.73 88.06 93.24c.95-.41 1.76-.77 1.8-.8.04-.03-.22-.73-.59-1.56-2.22-5.02-3.35-10.72-3.41-17.14l-.04-4.43h-.63c-2.37 0-10.07-.62-11.81-.95a20.06 20.06 0 0 1-4.62-1.61c-2.1-1.02-2.87-1.58-4.8-3.5-1.92-1.93-2.49-2.7-3.5-4.8a20.2 20.2 0 0 1-1.66-4.81c-.43-2.2-.42-2.71.11-11.38.45-7.11.69-9.5 1.12-11.05 2.02-7.21 7.86-12.32 15.44-13.5 2.55-.4 18.34.6 21.23 1.33 2.43.63 5.05 1.98 7.23 3.73.9.73 1.67 1.3 1.7 1.24.73-1.07 11.19-15.66 11.63-16.2l.63-.79 5.13 3.01 5.85 3.43c.4.23.73.55.73.71 0 .17-.42 1.22-.93 2.34-2.54 5.58-4.33 12.49-3.91 15.08l.14.86 3.08.17c5.95.32 13.88 2.44 19.48 5.22a40.3 40.3 0 0 1 18.39 18.37 37.94 37.94 0 0 1 4.37 18.52c0 5.16-.44 8.1-1.9 12.66-.5 1.57-.88 2.9-.84 2.95.05.04 1.58.64 3.4 1.33a111.62 111.62 0 0 1 55.62 46.7 107.48 107.48 0 0 1 14.47 40.08c2.45 16.92.22 39-5.7 56.29a99.62 99.62 0 0 1-4.53 11.1l-.68 1.27H214.05l1.32-2.3c6.04-10.5 10-23.56 11.78-38.85.68-5.83.67-20.1 0-24.87a33.6 33.6 0 0 0-.67-3.76c-.11-.2-.79.5-1.76 1.82-4.7 6.36-11.75 10.75-20.64 12.82-2.97.7-3.55.74-9.12.75-6.78.01-8.39-.22-16.14-2.39-38.98-10.86-72.92-6.73-102.15 12.45-1.83 1.2-7.53 5.24-12.66 8.98a233.92 233.92 0 0 1-9.45 6.7c-.05-.06 2.04-6.82 4.66-15.02s4.72-14.95 4.66-15c-.08-.08-7.63 7.87-18.05 18.98l-.87.92.65 3.05a98.46 98.46 0 0 0 3.75 12.83c2.38 6.41 7.16 15.46 10.92 20.7l1.57 2.19h-8.43c-6.42 0-8.48-.08-8.67-.34zm20.85-80.9a3990.53 3990.53 0 0 1 30.55-32.21c.05.05-3.52 11.4-7.93 25.21-4.4 13.82-7.98 25.18-7.93 25.23.04.05 1.45-.57 3.14-1.39 12.6-6.12 25.87-9.94 40.75-11.72 5.02-.6 22.42-.68 27.65-.13 10.66 1.11 20.18 2.97 32.15 6.26 5.27 1.45 7.85 1.8 12.17 1.64 4.32-.16 6.86-.73 10.05-2.26 9.62-4.63 13.46-14.87 9.79-26.1-2.28-6.97-7.33-14.39-15.45-22.7a95.8 95.8 0 0 0-38.12-24.05l-3.03-1.03-.81.87c-.45.48-1.38 1.38-2.06 2l-1.24 1.12 8.74 10.76c5.12 6.3 9.07 11.4 9.53 12.3a13.13 13.13 0 0 1 1.49 7.37 13.15 13.15 0 0 1-2.49 7.5c-2.04 3-5.33 5.23-8.86 6-1.94.43-6.35.22-7.72-.37l-1.03-.43-2.02 1.61c-3.04 2.44-5.27 3.44-8.5 3.81-3.74.44-8.3-1.27-11.1-4.17-2.37-2.46-6.56-7.82-7.3-9.32a14.88 14.88 0 0 1-.92-10.08c.32-1.06.3-1.12-.67-2.38a14.16 14.16 0 0 1-2.35-11.8c.22-.88.35-1.65.29-1.72-.07-.07-1-.3-2.05-.52a49.16 49.16 0 0 1-19-8.84 25.86 25.86 0 0 0-2.92-2.1c-.47 0-5.51 2.22-8.82 3.87-19.97 10-37.15 27.82-45.83 47.52-3.7 8.38-5.96 16.41-7.51 26.66-.87 5.75-1.66 15.88-1.23 15.88.07 0 13.83-14.53 30.59-32.3zm78.64-22.52c.32-.17 2.82-2.15 5.56-4.39a108.3 108.3 0 0 1 5.3-4.18c.16-.05 1 .8 1.87 1.9 1.86 2.38 2.88 2.96 4.42 2.5 1.47-.44 2.12-1.42 2.03-3.01-.08-1.3-.2-1.44-15.16-19.9-8.3-10.23-15.42-18.8-15.84-19.05-1.9-1.16-4.4.35-4.4 2.65 0 1.28-.26.93 8.57 11.75a33.43 33.43 0 0 1 2.51 3.29c-1.2.9-4.99 4.08-5.33 4.47-.8.9-.6 2.32.5 3.61 1.15 1.33 1.94 1.7 2.9 1.34.37-.14 1.85-1.21 3.27-2.37a35.8 35.8 0 0 1 2.72-2.12c.27 0 4.2 5.05 4.12 5.28-.04.13-2.43 2.15-5.3 4.5-2.87 2.34-5.34 4.48-5.49 4.76-.67 1.25-.35 1.96 2.4 5.33 3.23 3.98 3.88 4.42 5.35 3.64zM116.63 97.3c1.58-8.05 8.92-13.17 16.86-11.76 4.18.74 7.02 2.76 11.15 7.9.9 1.14 1.74 2.06 1.87 2.06.55 0 4.76-4.85 5.88-6.77 4.88-8.36 5.2-17.68.89-26.3-3.06-6.13-8.06-10.62-14.74-13.26-.77-.3-3-.96-4.97-1.47a32.9 32.9 0 0 0-7.67-1.15c-4.36-.24-6.01-.64-8.31-1.98-1.48-.87-3.84-3.2-4.53-4.47-.28-.53-.57-.95-.65-.95-.31.01-4 6.5-6.24 10.99-7.03 14.03-8.2 26.46-3.42 36.22a27.17 27.17 0 0 0 6.48 8.28c1.88 1.54 6.23 4.3 6.78 4.3.16 0 .44-.74.62-1.64zM89.89 52.1c.61-1.67 2.35-5.54 3.88-8.6 1.92-3.88 2.76-5.85 2.76-6.49a4.83 4.83 0 0 0-3.04-4.33c-1.06-.4-15.8-1.21-16.86-.93a4.97 4.97 0 0 0-3.08 3.1c-.13.54-.44 4.33-.68 8.42-.42 6.93-.42 7.5 0 8.53a4.5 4.5 0 0 0 2.97 2.68c1.12.3 12.54 1.04 12.78.82.1-.08.66-1.52 1.27-3.2zm-7.6-4.42-2.22-.1.17-3.22c.1-1.78.24-3.69.32-4.25l.15-1.01 2.55.16c1.4.1 3.25.23 4.1.32l1.54.15-.19 3.87a43.7 43.7 0 0 1-.3 4.08c-.1.19-1.43.19-6.13 0z"/><circle style="fill:#000;fill-opacity:1;stroke:none;stroke-width:.15" cx="165.12" cy="220.66" r="9.4"/><circle style="fill:#000;fill-opacity:1;stroke:none;stroke-width:.15" cx="105.96" cy="220.66" r="9.4"/></svg>
