<svg xmlns="http://www.w3.org/2000/svg" width="46.993" height="32"><path fill="#00758F" d="M11.297 29.152H9.484c-.062-3.07-.238-5.953-.527-8.656h-.016L6.18 29.152H4.797l-2.742-8.656h-.016a143.29 143.29 0 0 0-.387 8.656H0c.105-3.863.375-7.484.8-10.863h2.25l2.614 7.984h.016l2.633-7.984h2.152c.469 3.961.746 7.582.832 10.863m7.867-8.015c-.738 4.02-1.71 6.937-2.922 8.758C15.301 31.3 14.27 32 13.145 32c-.301 0-.668-.09-1.106-.27v-.968c.211.031.465.047.754.047.523 0 .945-.145 1.266-.434.386-.352.578-.75.578-1.191 0-.301-.149-.918-.45-1.848l-1.988-6.2h1.781l1.426 4.637c.324 1.051.457 1.786.403 2.204.78-2.09 1.328-4.372 1.636-6.84h1.72"/><path fill="#F29111" d="M27.105 26.14c0 .922-.335 1.68-1.007 2.27-.676.59-1.578.887-2.711.887-1.063 0-2.09-.34-3.082-1.016l.465-.933c.855.43 1.628.644 2.324.644.652 0 1.164-.144 1.535-.433.367-.29.59-.696.59-1.207 0-.645-.45-1.196-1.274-1.66a224.15 224.15 0 0 1-2.277-1.29c-.824-.601-1.234-1.246-1.234-2.312 0-.88.304-1.59.921-2.133.614-.543 1.41-.812 2.383-.812 1.004 0 1.918.27 2.742.804l-.418.934a5.27 5.27 0 0 0-2.085-.45c-.555 0-.985.133-1.282.403-.3.266-.488.61-.488 1.027 0 .645.461 1.203 1.305 1.676.77.418 2.328 1.305 2.328 1.305.844.601 1.265 1.242 1.265 2.297"/><path fill-rule="evenodd" fill="#F29111" d="M30.348 26.98c-.438-.707-.66-1.843-.66-3.41 0-2.738.832-4.105 2.488-4.105.867 0 1.504.328 1.91.98.441.711.66 1.836.66 3.38 0 2.757-.832 4.136-2.488 4.136-.867 0-1.504-.324-1.91-.98m6.453 2.433-1.992-.984c.175-.145.343-.305.496-.485.847-.996 1.27-2.472 1.27-4.425 0-3.594-1.407-5.391-4.22-5.391-1.382 0-2.457.457-3.226 1.367-.848 1-1.27 2.469-1.27 4.41 0 1.91.375 3.309 1.125 4.2.68.804 1.715 1.206 3.094 1.206a4.92 4.92 0 0 0 1.418-.19l2.594 1.515.707-1.223"/><path fill="#F29111" d="M43.3 29.152h-5.152V18.29h1.735v9.527H43.3v1.336m1.234 0h.29v-1.105h.374v-.227h-1.054v.227h.39Zm2.188 0h.27V27.82h-.407l-.332.907-.36-.907H45.5v1.332h.258v-1.015h.015l.375 1.015h.196l.379-1.015v1.015"/><path fill-rule="evenodd" fill="#00758F" d="M45.477 14.652c-1.047-.027-1.86.078-2.54.368-.199.078-.511.078-.539.328.106.105.118.273.211.418.157.265.43.617.68.8.277.211.55.422.84.606.508.316 1.086.5 1.582.812.289.184.574.422.863.618.145.105.235.277.422.34v-.04c-.094-.117-.121-.289-.21-.418-.13-.132-.263-.25-.395-.382a6.241 6.241 0 0 0-1.36-1.325c-.418-.289-1.336-.683-1.504-1.168l-.027-.027c.29-.023.629-.129.902-.21.446-.118.852-.09 1.309-.208.21-.055.418-.121.629-.184v-.12c-.235-.235-.406-.551-.653-.774a17.55 17.55 0 0 0-2.16-1.613c-.406-.262-.93-.434-1.363-.657-.156-.078-.418-.117-.512-.25-.234-.289-.367-.668-.535-1.011a32.998 32.998 0 0 1-1.074-2.282c-.234-.511-.379-1.023-.668-1.496-1.348-2.234-2.813-3.582-5.066-4.91-.485-.273-1.059-.394-1.672-.539-.328-.012-.657-.039-.985-.05-.207-.094-.418-.344-.601-.462-.746-.472-2.668-1.496-3.219-.144-.355.855.523 1.695.824 2.129.223.3.512.64.668.984.09.223.117.457.207.695.211.579.407 1.22.684 1.758.14.278.3.567.48.813.11.144.29.21.328.449-.18.262-.195.656-.3.984-.47 1.48-.29 3.32.379 4.407.21.328.707 1.05 1.375.777.59-.238.46-.984.628-1.64.04-.16.012-.262.09-.368v.027c.184.364.367.72.54 1.086.406.645 1.113 1.313 1.703 1.758.312.239.562.645.953.79v-.04h-.024c-.082-.117-.199-.172-.304-.261a6.733 6.733 0 0 1-.68-.79 16.534 16.534 0 0 1-1.465-2.386c-.211-.41-.395-.856-.563-1.262-.078-.156-.078-.395-.21-.473-.196.29-.485.54-.63.891-.245.566-.273 1.262-.367 1.984-.05.012-.023 0-.05.028-.418-.106-.563-.54-.72-.907-.394-.933-.46-2.43-.116-3.503.09-.278.484-1.141.324-1.407-.078-.25-.34-.39-.484-.59a5.358 5.358 0 0 1-.47-.84c-.316-.734-.472-1.55-.812-2.285-.156-.34-.433-.695-.652-1.007-.25-.356-.523-.606-.723-1.024-.062-.144-.156-.383-.05-.539.023-.105.078-.144.183-.172.168-.144.652.04.824.117.485.2.891.383 1.293.657.184.133.383.383.617.449h.274c.422.09.89.023 1.285.144.691.223 1.32.551 1.883.903A11.655 11.655 0 0 1 38.84 7.5c.156.3.222.574.367.89.273.645.613 1.301.89 1.93.274.617.536 1.246.93 1.758.196.277.98.422 1.332.567.262.117.668.222.907.367.445.273.886.59 1.308.89.207.16.864.485.903.75"/><path fill-rule="evenodd" fill="#00758F" d="M32.125 3.246a2.077 2.077 0 0 0-.54.063v.027h.028c.106.21.29.355.418.539.106.21.2.418.301.629a.147.147 0 0 0 .027-.027c.184-.13.278-.34.278-.657-.082-.09-.094-.183-.16-.273-.079-.133-.247-.195-.352-.3"/></svg>
