<svg xmlns="http://www.w3.org/2000/svg" width="48" height="48"><defs><linearGradient id="a" gradientUnits="userSpaceOnUse" x1="26.649" y1="20.604" x2="135.665" y2="114.398" gradientTransform="matrix(.21602 0 0 .2181 -1.5 -.472)"><stop offset="0" stop-color="#5A9FD4"/><stop offset="1" stop-color="#306998"/></linearGradient><linearGradient id="b" gradientUnits="userSpaceOnUse" x1="150.961" y1="192.352" x2="112.031" y2="137.273" gradientTransform="matrix(.21602 0 0 .2181 -1.5 -.472)"><stop offset="0" stop-color="#FFD43B"/><stop offset="1" stop-color="#FFE873"/></linearGradient></defs><path fill="url(#a)" d="M25.348 4.023a29.39 29.39 0 0 0-4.922.418c-4.356.77-5.149 2.383-5.149 5.352v3.926h10.297v1.308h-14.16c-2.992 0-5.613 1.797-6.434 5.22-.945 3.921-.984 6.366 0 10.464.735 3.047 2.48 5.219 5.473 5.219h3.54v-4.703c0-3.399 2.94-6.399 6.433-6.399H30.71c2.863 0 5.148-2.355 5.148-5.23V9.793c0-2.79-2.355-4.887-5.148-5.352a31.908 31.908 0 0 0-5.363-.418Zm-5.57 3.153c1.062 0 1.933.883 1.933 1.969a1.948 1.948 0 0 1-1.934 1.957c-1.066 0-1.93-.875-1.93-1.957 0-1.086.864-1.97 1.93-1.97Zm0 0"/><path fill="url(#b)" d="M37.14 15.027v4.57c0 3.544-3.003 6.528-6.43 6.528H20.427c-2.817 0-5.149 2.41-5.149 5.234v9.801c0 2.793 2.426 4.434 5.149 5.235 3.258.957 6.383 1.128 10.285 0 2.59-.75 5.148-2.262 5.148-5.235v-3.922H25.574V35.93h15.43c2.996 0 4.11-2.086 5.148-5.22 1.078-3.226 1.032-6.327 0-10.464-.738-2.98-2.148-5.219-5.148-5.219Zm-5.78 24.825c1.066 0 1.93.875 1.93 1.957 0 1.086-.864 1.968-1.93 1.968-1.067 0-1.934-.882-1.934-1.968 0-1.082.867-1.957 1.933-1.957Zm0 0"/></svg>
