<svg xmlns="http://www.w3.org/2000/svg" width="48" height="48"><path fill="#55C500" d="M35.645 36.379c-2.59 2.762-6.11 3.668-10.368 4.098-8.62.875-16.09-2.98-16.996-12.598-.383-4.09.528-7.977 2.364-11.164l-1.07-4.2c-.173-.734.5-1.425 1.214-1.253l3.688.894c2.195-1.8 4.851-2.98 7.78-3.277a14.307 14.307 0 0 1 7.141 1.125l3.47-2.098c.655-.394 1.48.051 1.542.832l.2 4.953c2.667 2.813 4.484 6.664 4.894 11.032.234 2.465-.02 4.355-.676 6.152-.305.844-.398 1.559.152 2.262.54.683 1.387 2.008 2.333 1.785 1.421-.332 2.945-.246 3.882.344A23.903 23.903 0 0 0 48 24C48 10.746 37.254 0 24 0S0 10.746 0 24s10.746 24 24 24a23.923 23.923 0 0 0 17.3-7.367 5.655 5.655 0 0 1-2.292-.906c-1.43-.954-2.7-1.852-3.363-3.348"/><path fill="#55C500" d="m33.426 18.781 2.242-.277-.031-.402-2.301.28a9.84 9.84 0 0 0-.332-.85l2.535-.81-.082-.507-2.695.937c-1.805-3.789-5.711-6.09-10.137-5.644-4.414.449-7.914 3.625-8.988 7.695l-2.633-.398-.031.52 2.597.28c-.07.297-.129.477-.172.786l-2.265.18.02.402 2.21-.176a8.05 8.05 0 0 0-.07.914l-2.016.824.102.5 1.918-.898c.004.27.015.41.039.683.535 5.672 5.273 6.793 10.937 6.223 5.665-.574 10.106-2.625 9.57-8.297-.027-.273-.066-.414-.109-.68l2.078.454.047-.457-2.18-.418c-.07-.336-.152-.54-.253-.864"/></svg>
