<svg width="400" height="400" xmlns="http://www.w3.org/2000/svg"><defs><clipPath clipPathUnits="userSpaceOnUse" id="a"><path d="M0 300h300V0H0Z"/></clipPath></defs><g clip-path="url(#a)" transform="matrix(1.33333 0 0 -1.33333 0 400)"><path d="M0 0c-16.18-17.26-38.17-22.94-64.78-25.63C-118.67-31.08-165.35-7-171 53.12c-2.4 25.56 3.28 49.86 14.75 69.77l-6.67 26.26c-1.08 4.57 3.12 8.91 7.57 7.83l23.07-5.6c13.72 11.27 30.3 18.63 48.61 20.48a89.07 89.07 0 0 0 44.64-7.03l21.69 13.11c4.08 2.47 9.24-.32 9.63-5.2l1.25-30.94c16.68-17.6 28.03-41.65 30.6-68.95C25.6 57.43 24 45.63 19.9 34.38c-1.91-5.27-2.49-9.73.97-14.13C24.22 15.98 29.52 7.7 35.43 9.1c8.88 2.08 18.4 1.53 24.28-2.14a149.33 149.33 0 0 1 17.52 70.4c0 82.84-67.16 150-150 150s-150-67.16-150-150 67.16-150 150-150c42.48 0 80.83 17.66 108.12 46.04a35.39 35.39 0 0 0-14.33 5.68C12.09-14.97 4.16-9.35 0 0" style="fill:#55c500;fill-opacity:1;fill-rule:nonzero;stroke:none" transform="translate(222.77 72.64)"/><path d="m0 0 14 1.72-.19 2.52L-.56 2.48A63.48 63.48 0 0 1-2.64 7.8l15.83 5.06-.5 3.17-16.84-5.84c-11.3 23.68-35.71 38.06-63.36 35.26-27.6-2.79-49.47-22.66-56.17-48.1l-16.47 2.5-.18-3.24 16.22-1.76c-.44-1.87-.8-2.98-1.08-4.9l-14.15-1.13.13-2.53 13.8 1.1a50.12 50.12 0 0 1-.42-5.71l-12.6-5.15.62-3.12 12 5.61c.02-1.67.1-2.56.25-4.26 3.34-35.46 32.96-42.47 68.35-38.9 35.4 3.58 63.15 16.4 59.81 51.86-.16 1.7-.4 2.59-.69 4.24l13-2.82.3 2.86L1.58-5.4C1.15-3.3.62-2.03 0 0" style="fill:#55c500;fill-opacity:1;fill-rule:nonzero;stroke:none" transform="translate(208.92 182.62)"/></g></svg>
