<svg fill="none" height="256" width="256" xmlns="http://www.w3.org/2000/svg"><rect fill="#3178c6" height="256" rx="20" width="256"/><path clip-rule="evenodd" d="M150.52 200.47v27.62c4.49 2.3 9.8 4.03 15.94 5.18s12.6 1.73 19.39 1.73c6.62 0 12.91-.63 18.87-1.9s11.19-3.35 15.68-6.26a31.9 31.9 0 0 0 10.67-11.39c2.62-4.69 3.93-10.49 3.93-17.4 0-5-.75-9.39-2.25-13.15s-3.65-7.13-6.48-10.06a47.44 47.44 0 0 0-10.14-7.9 108.8 108.8 0 0 0-13.35-6.6c-3.63-1.5-6.88-2.95-9.76-4.36a49.45 49.45 0 0 1-7.34-4.31c-2.02-1.47-3.58-3.03-4.67-4.67s-1.64-3.49-1.64-5.56c0-1.9.49-3.61 1.47-5.14s2.36-2.83 4.14-3.92a22.16 22.16 0 0 1 6.57-2.55c2.6-.6 5.47-.9 8.64-.9a57.56 57.56 0 0 1 15.03 2.12c2.59.7 5.1 1.61 7.56 2.7a41.7 41.7 0 0 1 6.78 3.8v-25.8c-4.2-1.61-8.8-2.8-13.78-3.59s-10.7-1.16-17.15-1.16c-6.56 0-12.78.7-18.66 2.11a47.45 47.45 0 0 0-15.5 6.6c-4.46 3-8 6.81-10.58 11.44-2.6 4.64-3.89 10.17-3.89 16.62 0 8.23 2.37 15.25 7.13 21.06 4.75 5.81 11.96 10.73 21.63 14.76 3.8 1.55 7.35 3.08 10.63 4.57 3.28 1.5 6.12 3.05 8.5 4.66s4.29 3.37 5.67 5.27a10.74 10.74 0 0 1 .77 11.43c-.86 1.53-2.17 2.85-3.93 3.97s-3.94 2-6.56 2.64-5.69.95-9.2.95a53.1 53.1 0 0 1-34.12-12.6zm-46.04-68.73H140V109H41v22.74h35.34V233h28.14z" fill="#fff" fill-rule="evenodd"/></svg>
