<svg width="120" height="120" viewBox="0 0 31.75 31.75" xmlns="http://www.w3.org/2000/svg"><path fill="#4081cc" d="M154.805 154.728a.272.272 0 0 0-.27-.269.25.25 0 0 0-.061.008c-2.371.492-4.843.687-7.374.548-.78-.043-1.547 0-2.303.058-.058.004-.115.011-.172.018a2.891 2.891 0 0 0-1.632.79c-.399.392-.68.895-.8 1.44-.144.658-.042 1.338.236 1.946.27.589.7 1.102 1.236 1.47a7.113 7.113 0 0 0 3.141 1.162c.006-.167.26-.43.27-.558a.232.232 0 0 0-.214-.247c-.694.026-1.203.01-1.855-.234a4.48 4.48 0 0 1-1.75-1.194 2.69 2.69 0 0 1-.543-.855 2.484 2.484 0 0 1-.154-1.009 2.478 2.478 0 0 1 2.1-2.287 2.459 2.459 0 0 1 2.462 1.183 4.8 4.8 0 0 1 .46 1.028c.23.749.251 1.57.152 2.343a6.082 6.082 0 0 1-.393 1.508.268.268 0 0 0 .24.371h.069a7.12 7.12 0 0 0 4.604-1.679l.004-.004a.26.26 0 0 0 .08-.188.294.294 0 0 0-.044-.147c-.467-.809-1.481-1.975-1.481-1.975s1.148 1.03 1.973 1.481a.299.299 0 0 0 .148.045c.073 0 .14-.03.189-.079l.007-.008a7.126 7.126 0 0 0 1.675-4.601v-.065" style="stroke-width:.264583" transform="matrix(1.84883 0 0 1.84883 -257.105 -270.313)"/><path fill="#fab20a" d="M141.85 158.004a5.719 5.719 0 0 1-.498-1.993c-.006-.093-.004-.218-.005-.31a.231.231 0 0 0-.231-.232c-.127 0-.401.234-.592.234a7.192 7.192 0 0 0 1.936 4.044c.517.539 1.157.957 1.883 1.153.626.17 1.288.094 1.865-.197.276-.141.53-.33.74-.556.224-.243.398-.538.557-.825.168-.304.314-.62.445-.943.141-.34.257-.693.41-1.03.582-1.274 1.402-2.436 2.51-3.302a8.404 8.404 0 0 1 3.228-1.552.269.269 0 0 0 .177-.342 7.194 7.194 0 0 0-1.88-2.691l-.018-.015a.262.262 0 0 0-.176-.068c-.074 0-.136.045-.192.083-1.32.919-2.293 2.45-2.293 2.45s.514-1.308 1.613-2.923a.27.27 0 0 0-.073-.36c-.008-.005-.019-.01-.027-.016a7.184 7.184 0 0 0-2.194-.836 7.222 7.222 0 0 0-1.714-.132h-.005l-.008.001a.272.272 0 0 0-.26.267c-.073 1.88.295 5.112.295 5.112s-.655-3.186-1.301-4.952a.275.275 0 0 0-.307-.183c-.002 0-.004 0-.006.002a7.174 7.174 0 0 0-3.438 2.131l-.009.01a.264.264 0 0 0-.072.182c0 .073.026.148.08.19a17.598 17.598 0 0 1 2.45 2.294s-1.334-.987-2.923-1.614c-.044-.017-.088-.039-.138-.039a.267.267 0 0 0-.224.122 7.094 7.094 0 0 0-.952 2.92c-.016.145-.025.295.126.378a.272.272 0 0 0 .191.025 6.727 6.727 0 0 1 3.687.274c.662.248 1.268.636 1.727 1.18.864 1.028 1.325 2.792.33 3.887a2.17 2.17 0 0 1-1.803.686c-.346-.032-.653-.154-.955-.317a4.051 4.051 0 0 1-.773-.53c-.512-.455-.904-1.045-1.182-1.667" style="stroke-width:.264583" transform="matrix(1.84883 0 0 1.84883 -257.105 -270.313)"/></svg>