<?xml version="1.0" encoding="UTF-8" standalone="no"?>
<!-- Created with Inkscape (http://www.inkscape.org/) -->

<svg
   width="120"
   height="120"
   viewBox="0 0 31.749999 31.750001"
   version="1.1"
   id="svg2954"
   xmlns="http://www.w3.org/2000/svg"
   xmlns:svg="http://www.w3.org/2000/svg">
  <defs
     id="defs2951" />
  <g
     id="layer1">
    <g
       id="g3034"
       transform="matrix(1.8488327,0,0,1.8488327,-257.10501,-270.31262)">
      <path
         fill-rule="nonzero"
         fill="#4081cc"
         fill-opacity="1"
         d="m 154.80458,154.72771 c -10e-4,-0.14572 -0.12196,-0.26871 -0.26872,-0.26871 -0.0217,0 -0.0424,0.003 -0.062,0.008 -2.37091,0.49196 -4.84311,0.6873 -7.37423,0.54777 -0.78031,-0.0424 -1.54616,0 -2.3027,0.0579 -0.0579,0.004 -0.11472,0.0114 -0.17156,0.0186 -0.60462,0.0827 -1.18339,0.3514 -1.63195,0.79065 -0.39894,0.39068 -0.68109,0.894 -0.80098,1.43971 -0.14366,0.65732 -0.0413,1.33738 0.23668,1.9451 0.26975,0.58911 0.70073,1.10277 1.2361,1.47071 0.58291,0.39171 1.22266,0.6966 1.89549,0.90124 0.42271,0.12712 0.79995,0.20567 1.2454,0.26044 0.006,-0.16743 0.26045,-0.43098 0.26975,-0.5581 0.009,-0.12609 -0.0868,-0.23771 -0.21394,-0.24702 -0.6935,0.0258 -1.20303,0.0103 -1.85518,-0.23357 -0.66663,-0.25012 -1.27228,-0.66353 -1.74976,-1.19476 -0.22945,-0.25322 -0.42168,-0.5333 -0.54261,-0.85473 -0.12092,-0.32143 -0.1726,-0.66559 -0.15399,-1.00872 0.0661,-1.14929 0.95911,-2.12287 2.09909,-2.2872 0.62942,-0.0899 1.28261,0.0723 1.79628,0.44855 0.26871,0.19637 0.49712,0.44855 0.66559,0.73484 0.1912,0.32453 0.35036,0.66662 0.46095,1.02732 0.23048,0.74932 0.25115,1.56994 0.15193,2.34301 -0.0424,0.32867 -0.10955,0.65526 -0.20464,0.97152 -0.0527,0.1819 -0.11575,0.36174 -0.1881,0.5364 -0.0124,0.032 -0.0196,0.0662 -0.0196,0.10336 0,0.14572 0.11679,0.26355 0.26045,0.26768 0.0176,0.001 0.0486,0.001 0.0672,0.001 1.75493,0 3.36,-0.63149 4.60437,-1.67948 0.001,-10e-4 0.003,-0.002 0.004,-0.004 0.0496,-0.0475 0.0796,-0.11472 0.0796,-0.1881 0,-0.0548 -0.0186,-0.10335 -0.0434,-0.14676 -0.46716,-0.80926 -1.48105,-1.97508 -1.48105,-1.97508 0,0 1.14825,1.03043 1.97301,1.48105 0.0444,0.0248 0.092,0.0444 0.14779,0.0444 0.0734,0 0.14056,-0.03 0.18914,-0.0786 0.002,-0.002 0.005,-0.005 0.007,-0.008 1.04593,-1.24437 1.67535,-2.84944 1.67535,-4.60127 0,-0.0217 -0.001,-0.0424 -0.001,-0.0651"
         id="path2235"
         style="stroke-width:0.264583" />
      <path
         fill-rule="nonzero"
         fill="#fab20a"
         fill-opacity="1"
         d="m 141.85033,158.004 c -0.28215,-0.62735 -0.45682,-1.30638 -0.49816,-1.99264 -0.006,-0.093 -0.004,-0.21808 -0.005,-0.3111 0,-0.12712 -0.10232,-0.23151 -0.23151,-0.23151 -0.12712,0 -0.40101,0.23462 -0.59118,0.23462 0.19534,1.51205 0.8785,2.94245 1.9358,4.04316 0.51677,0.5395 1.15652,0.95705 1.88309,1.15342 0.62529,0.1695 1.28778,0.0941 1.86449,-0.19741 0.27595,-0.14056 0.5302,-0.32866 0.74,-0.55603 0.22428,-0.24288 0.39791,-0.53744 0.55707,-0.82476 0.16847,-0.30386 0.3142,-0.62012 0.44546,-0.94258 0.14056,-0.34106 0.25631,-0.6935 0.40927,-1.03043 0.58188,-1.2733 1.4025,-2.43602 2.51044,-3.30212 0.54054,-0.42271 1.13275,-0.77825 1.7601,-1.0573 0.3204,-0.14263 0.64699,-0.26355 0.98186,-0.3638 0.16019,-0.0486 0.32246,-0.092 0.48575,-0.13023 0.1447,-0.0444 0.22531,-0.2005 0.17674,-0.3421 -0.40721,-1.02732 -1.05834,-1.9544 -1.87999,-2.6913 -0.006,-0.004 -0.0114,-0.009 -0.0176,-0.0145 -0.0455,-0.0413 -0.10749,-0.0682 -0.1757,-0.0682 -0.0744,0 -0.13643,0.0444 -0.19224,0.0827 -1.32085,0.91881 -2.2934,2.44947 -2.2934,2.44947 0,0 0.5147,-1.30742 1.61334,-2.92282 0.0269,-0.0403 0.0393,-0.0879 0.0393,-0.13953 0,-0.092 -0.0445,-0.17053 -0.11266,-0.22014 -0.008,-0.005 -0.0186,-0.009 -0.0269,-0.0155 -0.67903,-0.3948 -1.4211,-0.68109 -2.19418,-0.83612 -0.56327,-0.11266 -1.13998,-0.15606 -1.71359,-0.13229 -0.002,0 -0.003,0 -0.005,0 -0.003,0 -0.006,0.001 -0.008,0.001 -0.14366,0.005 -0.25425,0.12298 -0.25941,0.26665 -0.0734,1.87998 0.29455,5.11286 0.29455,5.11286 0,0 -0.65525,-3.18637 -1.30121,-4.95267 -0.0393,-0.10645 -0.13436,-0.1881 -0.25425,-0.1881 -0.0186,0 -0.0351,0.002 -0.0527,0.005 -0.002,0.001 -0.004,0.001 -0.006,0.002 -0.0465,0.0124 -0.093,0.0248 -0.13849,0.0382 -1.08107,0.32039 -2.07843,0.89916 -2.89388,1.67431 -0.14159,0.13333 -0.27492,0.27285 -0.40515,0.41858 -0.003,0.003 -0.006,0.007 -0.009,0.0104 -0.0444,0.0475 -0.0724,0.11058 -0.0724,0.1819 0,0.0734 0.0258,0.14779 0.0796,0.19017 1.41077,1.0728 2.4505,2.29339 2.4505,2.29339 0,0 -1.33428,-0.98701 -2.92282,-1.61333 -0.0444,-0.0176 -0.0879,-0.0393 -0.13849,-0.0393 -0.093,0 -0.17363,0.0465 -0.22221,0.11782 0,0.001 -0.001,0.003 -0.002,0.004 -0.23047,0.39171 -0.42478,0.80409 -0.57567,1.23093 -0.19327,0.54467 -0.31936,1.11311 -0.37621,1.68879 -0.0155,0.14573 -0.0248,0.29559 0.12609,0.37827 0.0589,0.0331 0.12506,0.0382 0.19121,0.0248 0.0971,-0.0196 0.19533,-0.0382 0.29352,-0.0548 0.37724,-0.061 0.76171,-0.0899 1.14308,-0.0858 0.76688,0.008 1.53272,0.14676 2.24999,0.41445 0.66249,0.24804 1.26814,0.63665 1.72703,1.18132 0.86403,1.02733 1.32498,2.79156 0.32969,3.88607 -0.45578,0.50229 -1.12861,0.7462 -1.80247,0.68626 -0.34623,-0.032 -0.65319,-0.154 -0.95498,-0.31729 -0.27699,-0.14883 -0.53847,-0.32246 -0.77308,-0.5302 -0.5116,-0.45475 -0.9033,-1.0449 -1.18132,-1.66708"
         id="path2237"
         style="stroke-width:0.264583" />
    </g>
  </g>
</svg>
