<svg width="44" height="44" viewBox="0 0 11.642 11.642" xmlns="http://www.w3.org/2000/svg"><path d="M5.82.216a5.746 5.746 0 0 0-1.816 11.2c.288.052.393-.125.393-.278 0-.136-.005-.497-.008-.977-1.599.347-1.936-.77-1.936-.77-.261-.664-.638-.84-.638-.84-.522-.357.04-.35.04-.35.576.04.88.592.88.592.512.878 1.345.625 1.672.478.052-.372.2-.625.365-.768-1.276-.145-2.618-.639-2.618-2.84 0-.628.224-1.14.592-1.543-.06-.145-.257-.73.056-1.52 0 0 .482-.155 1.58.589.459-.128.95-.192 1.439-.194.488.002.98.066 1.439.194 1.097-.744 1.578-.59 1.578-.59.314.792.117 1.376.057 1.521.369.402.591.915.591 1.542 0 2.208-1.344 2.694-2.624 2.836.207.177.39.528.39 1.064 0 .768-.007 1.388-.007 1.576 0 .154.104.333.396.277A5.749 5.749 0 0 0 5.82.216" style="fill:#1b1817;fill-opacity:1;fill-rule:evenodd;stroke:none;stroke-width:.352778"/></svg>