<svg xmlns="http://www.w3.org/2000/svg" width="100" height="100" viewBox="0 0 26.458 26.458"><path d="M246.394 414.255c0 1.618 6.138 2.526 8.997 2.746l.273-.158c-1.098-.199-5.504-.976-5.504-1.99 0-1.103 6.757-1.826 10.679-1.826 6.66 0 11.189 1.008 12.407 1.34l1.704-.99c-1.167-.572-6.176-2.07-14.111-2.07-8.818 0-14.445 1.726-14.445 2.948m13.44-22.715c-3.49-.03-7.751.26-11.336.861l-.332-.19c3.57-1.048 8.542-1.68 14.005-1.633 10.729.094 19.427 2.755 19.599 5.956l-.124.073c-.72-.878-5.36-4.923-21.812-5.067m.914 2.062c8.78.077 18.604 1.795 18.579 4.684-.004.523-.345.882-.642 1.1l-.144-.084c-.811-2.237-7.672-3.89-17.808-3.979-6.54-.057-15.6 1.51-15.616 3.321-.016 1.815 4.292 2.813 4.292 2.813l-.305.174c-2.886-.398-8.205-1.78-8.188-3.777.026-2.885 12.25-4.318 19.832-4.252m19.78 19.881c-.176-3.388-3.306-5.497-6.434-7.279l.283-.164c3.339.94 9.294 3.673 8.802 7.877-.245 2.096-2.161 3.594-4.66 3.594a6.98 6.98 0 0 1-2.03-.309l-.002-.005-.118-.298c2.234.437 4.276-1.194 4.16-3.416m-25.794-10.066c-1.02-.203-3.24-.713-3.24-1.793 0-1.496 4.752-2.642 9.339-2.642 6.312 0 8.897 1.624 9.014 1.708l-2.624 1.52c-1.117-.267-2.997-.685-6.384-.685-3.78 0-6.242.647-6.242 1.356 0 .15.094.33.269.46zm15.506 5.042c-1.451-.41-4.72-1.08-9.396-1.08-4.59 0-8.338.784-8.35 1.71-.008.615.736.883.736.883l-.132.076c-2.198-.388-4.238-.988-4.227-1.887.02-1.63 6.258-2.856 11.964-2.856 4.85 0 9.51.814 11.61 1.88z" style="fill:#007699;fill-opacity:1;fill-rule:nonzero;stroke:none" transform="matrix(.35278 0 0 -.35278 -79.22 161.324)"/><path d="M268.99 444.838c0-8.992-12.322-12.433-12.322-18.826 0-4.487 2.976-7.302 4.622-9.082l-.133-.077c-2.08 1.301-7.55 4.57-7.55 9.967 0 7.578 14.155 11.2 14.155 19.807a9.695 9.695 0 0 1-.266 2.31l.143.081c.448-.563 1.35-1.972 1.35-4.18m4.054-7.963-.148.085c-2.682-.899-10.937-4.158-10.937-10.233 0-3.436 3.355-5.339 3.355-8.56 0-1.15-.65-2.228-1.177-2.873l.265-.153c1.397.908 3.87 2.873 3.87 5.411 0 2.15-2.975 4.732-2.975 7.494 0 4.353 5.739 7.768 7.747 8.83" style="fill:#f7901e;fill-opacity:1;fill-rule:nonzero;stroke:none" transform="matrix(.35278 0 0 -.35278 -79.22 161.324)"/></svg>